<svg xmlns="http://www.w3.org/2000/svg" xmlns:xlink="http://www.w3.org/1999/xlink" fill="none" version="1.1" width="44" height="44" viewBox="0 0 44 44"><defs><clipPath id="master_svg0_57_02118"><rect x="0" y="0" width="44" height="44" rx="0"/></clipPath></defs><g clip-path="url(#master_svg0_57_02118)"><g><g><rect x="0" y="2" width="15.9948148727417" height="4.000835418701172" rx="0" fill="#0A0405" fill-opacity="1"/></g><g><rect x="4.000792026519775" y="7.997076511383057" width="12.002375602722168" height="4.000835418701172" rx="0" fill="#0A0405" fill-opacity="1"/></g><g><rect x="4.000792026519775" y="14.002506256103516" width="19.995607376098633" height="4.000835418701172" rx="0" fill="#0A0405" fill-opacity="1"/></g><g><rect x="0" y="19.999582290649414" width="15.9948148727417" height="4.000835418701172" rx="0" fill="#0A0405" fill-opacity="1"/></g><g><rect x="4.000792026519775" y="25.996658325195312" width="19.995607376098633" height="4.000835418701172" rx="0" fill="#0A0405" fill-opacity="1"/></g><g><rect x="4.000792026519775" y="31.993736267089844" width="12.002375602722168" height="4.000835418701172" rx="0" fill="#0A0405" fill-opacity="1"/></g><g><rect x="0" y="37.99916458129883" width="15.9948148727417" height="4.000835418701172" rx="0" fill="#0A0405" fill-opacity="1"/></g><g><rect x="19.9959659576416" y="7.997076511383057" width="12.002375602722168" height="4.000835418701172" rx="0" fill="#CA1C1D" fill-opacity="1"/></g><g><rect x="27.99679946899414" y="14.002506256103516" width="12.002375602722168" height="4.000835418701172" rx="0" fill="#CA1C1D" fill-opacity="1"/></g><g><rect x="31.997623443603516" y="19.999582290649414" width="12.002375602722168" height="4.000835418701172" rx="0" fill="#CA1C1D" fill-opacity="1"/></g><g><rect x="27.99679946899414" y="25.996658325195312" width="12.002375602722168" height="4.000835418701172" rx="0" fill="#CA1C1D" fill-opacity="1"/></g><g><rect x="19.9959659576416" y="31.993736267089844" width="12.002375602722168" height="4.000835418701172" rx="0" fill="#CA1C1D" fill-opacity="1"/></g><g><rect x="27.99679946899414" y="2" width="15.9948148727417" height="4.000835418701172" rx="0" fill="#0A0405" fill-opacity="1"/></g><g><rect x="27.99679946899414" y="37.99916458129883" width="15.9948148727417" height="4.000835418701172" rx="0" fill="#0A0405" fill-opacity="1"/></g></g></g></svg>